<svg id="svg" version="1.1" xmlns="http://www.w3.org/2000/svg" xmlns:xlink="http://www.w3.org/1999/xlink" width="400" height="389.0776699029126" viewBox="0, 0, 400,389.0776699029126"><g id="svgg"><path id="path0" d="M211.650 186.176 C 206.930 186.580,201.385 188.057,197.233 190.016 C 195.836 190.675,133.723 228.448,127.467 232.444 C 126.709 232.927,126.107 232.665,135.092 235.764 C 141.597 238.008,143.094 238.606,143.144 238.981 C 143.178 239.234,137.313 271.714,130.111 311.158 C 122.909 350.602,117.070 382.927,117.134 382.992 C 117.283 383.140,115.244 385.200,165.026 334.615 C 188.133 311.136,207.035 291.858,207.030 291.776 C 207.020 291.588,183.716 280.825,183.321 280.825 C 183.162 280.825,178.318 285.931,172.556 292.172 C 159.337 306.490,160.010 305.825,158.732 305.825 C 157.611 305.825,156.067 304.608,156.068 303.726 C 156.069 302.996,171.122 229.752,171.309 229.566 C 172.272 228.612,200.698 211.607,201.863 211.289 C 216.564 207.270,230.757 224.124,222.751 236.093 C 220.893 238.871,219.835 239.624,205.079 248.655 C 197.436 253.333,191.174 257.264,191.162 257.391 C 191.136 257.679,360.772 331.050,360.877 330.796 C 360.955 330.606,338.527 293.549,338.025 293.038 C 337.870 292.880,316.226 283.669,289.927 272.567 C 237.935 250.621,240.786 251.888,240.066 250.400 C 239.026 248.251,239.501 247.231,243.131 243.811 C 250.130 237.218,252.966 230.947,253.012 221.966 C 253.118 200.968,233.828 184.276,211.650 186.176 " stroke="none" fill="#2cac74" fill-rule="evenodd"></path><path id="path1" d="M180.825 6.074 C 180.825 6.211,179.956 11.317,178.894 17.421 C 177.832 23.525,175.540 36.711,173.801 46.723 C 172.061 56.735,170.416 66.183,170.145 67.718 C 169.752 69.947,162.183 113.515,156.778 144.659 C 156.233 147.795,155.760 150.389,155.725 150.424 C 155.690 150.459,152.231 151.191,148.037 152.052 C 143.844 152.913,137.191 154.284,133.252 155.098 C 129.314 155.912,125.601 156.677,125.000 156.797 C 123.903 157.016,112.895 159.279,98.422 162.261 C 94.150 163.141,86.450 164.724,81.311 165.780 C 76.171 166.835,68.471 168.418,64.199 169.297 C 59.927 170.176,54.084 171.377,51.214 171.966 C 48.343 172.554,42.773 173.701,38.835 174.516 C 32.692 175.785,17.710 178.861,9.223 180.594 C 7.822 180.880,6.593 181.191,6.493 181.285 C 6.393 181.379,8.140 182.236,10.376 183.190 C 15.437 185.348,24.384 189.154,33.738 193.130 C 37.676 194.803,43.137 197.129,45.874 198.299 C 54.099 201.815,61.806 205.097,70.388 208.739 C 78.857 212.333,87.780 216.128,92.354 218.083 C 93.823 218.710,97.182 220.138,99.820 221.256 L 104.616 223.288 106.616 222.044 C 107.716 221.360,109.272 220.394,110.073 219.898 C 112.180 218.593,126.320 209.958,129.672 207.928 C 133.014 205.905,132.933 206.068,131.007 205.268 C 129.554 204.665,118.954 200.320,109.466 196.437 C 106.996 195.427,103.720 194.082,102.184 193.450 C 100.649 192.818,98.093 191.772,96.504 191.126 C 94.915 190.480,93.714 189.922,93.834 189.886 C 93.955 189.849,101.262 188.287,110.073 186.414 C 118.883 184.542,126.802 182.848,127.670 182.650 C 129.120 182.320,177.481 171.967,178.900 171.684 C 179.470 171.570,179.551 171.397,179.831 169.699 C 179.999 168.677,181.265 161.286,182.645 153.277 C 184.024 145.267,186.316 131.942,187.738 123.665 C 189.160 115.388,190.583 107.142,190.898 105.340 C 191.214 103.538,191.991 99.033,192.624 95.330 C 193.257 91.627,193.796 88.624,193.820 88.656 C 193.845 88.687,195.068 90.953,196.539 93.689 C 201.929 103.721,204.227 107.978,206.430 112.015 C 207.669 114.284,209.527 117.725,210.559 119.660 C 211.592 121.596,212.738 123.726,213.107 124.393 C 213.476 125.061,215.307 128.447,217.175 131.917 C 219.043 135.388,221.254 139.484,222.087 141.019 C 222.920 142.555,224.421 145.340,225.422 147.209 C 226.423 149.078,227.484 151.044,227.781 151.578 C 228.077 152.112,229.280 154.333,230.455 156.513 L 232.591 160.478 233.468 160.321 C 234.372 160.160,288.691 148.573,291.505 147.942 C 294.282 147.319,318.099 142.233,318.240 142.233 C 318.314 142.233,304.406 156.186,287.332 173.240 C 270.258 190.294,256.179 204.441,256.046 204.676 C 255.816 205.083,258.233 209.461,266.595 223.786 C 267.257 224.921,268.363 226.833,269.052 228.034 C 271.485 232.278,274.110 236.782,274.647 237.636 C 275.087 238.336,275.646 238.699,277.583 239.547 C 278.899 240.122,288.188 244.239,298.226 248.695 C 308.264 253.151,316.597 256.796,316.744 256.796 C 317.010 256.796,316.604 256.007,314.681 252.791 C 314.122 251.857,313.029 250.000,312.252 248.665 C 311.475 247.330,310.325 245.364,309.697 244.296 C 303.980 234.578,301.939 231.105,300.780 229.126 C 300.038 227.858,299.136 226.329,298.777 225.728 C 298.418 225.127,297.327 223.271,296.352 221.602 C 295.378 219.933,293.249 216.316,291.620 213.563 L 288.659 208.558 297.667 199.484 C 302.621 194.493,311.368 185.659,317.105 179.853 C 331.730 165.050,346.171 150.443,358.381 138.104 C 388.850 107.311,393.978 102.059,393.637 101.991 C 393.319 101.928,374.320 105.664,338.350 112.863 C 300.695 120.398,249.210 130.600,249.157 130.536 C 249.123 130.495,248.767 129.860,248.367 129.126 C 247.967 128.392,243.980 121.074,239.506 112.864 C 235.032 104.654,229.351 94.223,226.882 89.684 C 224.412 85.146,222.120 80.941,221.788 80.340 C 221.456 79.739,217.525 72.530,213.052 64.320 C 208.580 56.110,202.866 45.625,200.356 41.019 C 197.845 36.414,195.400 31.926,194.922 31.045 C 182.299 7.795,180.825 5.184,180.825 6.074 " stroke="none" fill="#447cd4" fill-rule="evenodd"></path><path id="path2" d="" stroke="none" fill="#38b088" fill-rule="evenodd"></path><path id="path3" d="" stroke="none" fill="#3898bc" fill-rule="evenodd"></path><path id="path4" d="M389.912 106.129 L 389.199 106.917 389.988 106.205 C 390.723 105.540,390.888 105.340,390.701 105.340 C 390.659 105.340,390.304 105.695,389.912 106.129 M348.407 148.119 L 347.694 148.908 348.483 148.195 C 349.218 147.530,349.383 147.330,349.196 147.330 C 349.154 147.330,348.799 147.685,348.407 148.119 M297.205 163.410 L 294.539 166.141 297.269 163.475 C 298.771 162.009,300.000 160.780,300.000 160.744 C 300.000 160.569,299.681 160.874,297.205 163.410 M327.776 168.993 L 327.063 169.782 327.852 169.069 C 328.587 168.404,328.752 168.204,328.565 168.204 C 328.523 168.204,328.168 168.559,327.776 168.993 M277.904 182.706 L 276.578 184.102 277.973 182.775 C 279.270 181.543,279.480 181.311,279.300 181.311 C 279.262 181.311,278.634 181.939,277.904 182.706 " stroke="none" fill="#387cd8" fill-rule="evenodd"></path></g></svg>